<svg id="Capa_1" data-name="Capa 1" xmlns="http://www.w3.org/2000/svg" viewBox="0 0 595.82 388.58"><defs><style>.cls-1{fill:#10384a;}</style></defs><title>SION_LOGO [Recuperado]</title><path class="cls-1" d="M298.41,270.1a7,7,0,0,1-1.22,3.62l1.85,2.1h-1.89l-.87-1a3.63,3.63,0,0,1-3,1.22c-2.09,0-3.41-1.19-3.41-3a3.19,3.19,0,0,1,2.37-3.09,3.73,3.73,0,0,1-1.09-2.41,2.44,2.44,0,0,1,2.75-2.49,2.36,2.36,0,0,1,2.63,2.4c0,1.35-1.2,2.26-2.32,2.76l2.15,2.45a5,5,0,0,0,.65-2.56Zm-4.88,4.74a2.6,2.6,0,0,0,2-1l-2.55-3c-.8.55-1.48,1.05-1.48,2.1A2,2,0,0,0,293.53,274.84Zm0-5.48c.64-.31,1.59-1,1.59-1.85a1.14,1.14,0,0,0-1.26-1.31,1.24,1.24,0,0,0-1.27,1.37A2.79,2.79,0,0,0,293.48,269.36Z"/><path class="cls-1" d="M190.23,271.89V276h-1.46V265.09H192a6,6,0,0,1,1.79.24A3.45,3.45,0,0,1,195,266a2.64,2.64,0,0,1,.75,1.06,3.86,3.86,0,0,1,.25,1.39,3.52,3.52,0,0,1-.27,1.39,3,3,0,0,1-.78,1.08,3.62,3.62,0,0,1-1.27.71,5.39,5.39,0,0,1-1.73.25Zm0-1.16H192a3.41,3.41,0,0,0,1.11-.17,2.3,2.3,0,0,0,.81-.47,2.06,2.06,0,0,0,.49-.71,2.51,2.51,0,0,0,.17-.92,2.11,2.11,0,0,0-.64-1.62,2.81,2.81,0,0,0-1.94-.59h-1.75Z"/><path class="cls-1" d="M200.63,271.42V276h-1.46V265.09h3.07a6.63,6.63,0,0,1,1.78.21,3.42,3.42,0,0,1,1.24.6,2.44,2.44,0,0,1,.73,1,3.26,3.26,0,0,1,.23,1.24,3.14,3.14,0,0,1-.18,1.08,2.93,2.93,0,0,1-.53.9,3.34,3.34,0,0,1-.84.68,4.65,4.65,0,0,1-1.12.42,1.61,1.61,0,0,1,.48.46L207.2,276h-1.3a.66.66,0,0,1-.6-.32l-2.82-3.88a.85.85,0,0,0-.28-.26,1,1,0,0,0-.45-.08Zm0-1.07h1.54a3.94,3.94,0,0,0,1.14-.15,2.47,2.47,0,0,0,.82-.44,1.82,1.82,0,0,0,.49-.68,2.21,2.21,0,0,0,.17-.87,1.73,1.73,0,0,0-.64-1.46,3.09,3.09,0,0,0-1.91-.5h-1.61Z"/><path class="cls-1" d="M219.66,270.53a6.24,6.24,0,0,1-.39,2.24,5,5,0,0,1-1.09,1.75,4.85,4.85,0,0,1-1.69,1.14,6,6,0,0,1-4.37,0,4.85,4.85,0,0,1-1.69-1.14,5,5,0,0,1-1.09-1.75,6.63,6.63,0,0,1,0-4.48,5,5,0,0,1,1.09-1.76,4.88,4.88,0,0,1,1.69-1.15,6,6,0,0,1,4.37,0,4.88,4.88,0,0,1,1.69,1.15,5,5,0,0,1,1.09,1.76A6.2,6.2,0,0,1,219.66,270.53Zm-1.51,0a5.58,5.58,0,0,0-.27-1.8,3.74,3.74,0,0,0-.77-1.34,3.4,3.4,0,0,0-1.22-.85,4.48,4.48,0,0,0-3.17,0,3.4,3.4,0,0,0-1.22.85,3.76,3.76,0,0,0-.78,1.34,5.58,5.58,0,0,0-.27,1.8,5.52,5.52,0,0,0,.27,1.79,3.76,3.76,0,0,0,.78,1.34,3.26,3.26,0,0,0,1.22.84,4.34,4.34,0,0,0,3.17,0,3.26,3.26,0,0,0,1.22-.84,3.74,3.74,0,0,0,.77-1.34A5.52,5.52,0,0,0,218.15,270.53Z"/><path class="cls-1" d="M226.38,271.63V276h-1.46v-4.33l-4-6.54h1.29a.5.5,0,0,1,.31.1,1.16,1.16,0,0,1,.2.24l2.48,4.23a4.81,4.81,0,0,1,.26.5,4.37,4.37,0,0,1,.18.46l.18-.47a3.35,3.35,0,0,1,.26-.49l2.47-4.23a1.28,1.28,0,0,1,.19-.23.45.45,0,0,1,.31-.11h1.3Z"/><path class="cls-1" d="M239.57,265.09v1.2h-5.22v3.61h4.22v1.15h-4.22v3.71h5.22V276h-6.7V265.09Z"/><path class="cls-1" d="M250.47,273.71a.28.28,0,0,1,.22.1l.58.63a4.7,4.7,0,0,1-1.62,1.2,5.47,5.47,0,0,1-2.29.44,5.36,5.36,0,0,1-2.13-.41,4.61,4.61,0,0,1-1.63-1.14,5.11,5.11,0,0,1-1-1.75,6.48,6.48,0,0,1-.37-2.25,6,6,0,0,1,.4-2.25,5,5,0,0,1,2.84-2.9,5.89,5.89,0,0,1,2.22-.41,5,5,0,0,1,3.61,1.38l-.48.68-.12.12a.37.37,0,0,1-.2.05.35.35,0,0,1-.21-.07L250,267l-.36-.23a2.72,2.72,0,0,0-.48-.22,4.64,4.64,0,0,0-.65-.18,4.47,4.47,0,0,0-.86-.07,4.38,4.38,0,0,0-1.6.29,3.59,3.59,0,0,0-1.24.86,4,4,0,0,0-.82,1.35,5.23,5.23,0,0,0-.29,1.78,5.37,5.37,0,0,0,.29,1.81,4.1,4.1,0,0,0,.8,1.35,3.32,3.32,0,0,0,1.19.83,3.88,3.88,0,0,0,1.49.29,5.75,5.75,0,0,0,.87-.06,3.16,3.16,0,0,0,.72-.17,3.88,3.88,0,0,0,.61-.31,4.37,4.37,0,0,0,.57-.44A.39.39,0,0,1,250.47,273.71Z"/><path class="cls-1" d="M261.74,265.09v1.24h-3.51V276h-1.47v-9.63h-3.53v-1.24Z"/><path class="cls-1" d="M273.76,270.53a6.24,6.24,0,0,1-.38,2.24,5.13,5.13,0,0,1-1.09,1.75,4.89,4.89,0,0,1-1.7,1.14,6,6,0,0,1-4.37,0,5,5,0,0,1-1.69-1.14,5.13,5.13,0,0,1-1.09-1.75,6.79,6.79,0,0,1,0-4.48,5.18,5.18,0,0,1,1.09-1.76,5,5,0,0,1,1.69-1.15,6,6,0,0,1,4.37,0,4.92,4.92,0,0,1,1.7,1.15,5.18,5.18,0,0,1,1.09,1.76A6.2,6.2,0,0,1,273.76,270.53Zm-1.5,0a5.31,5.31,0,0,0-.28-1.8,3.74,3.74,0,0,0-.77-1.34,3.36,3.36,0,0,0-1.21-.85,4.5,4.5,0,0,0-3.18,0,3.36,3.36,0,0,0-1.21.85,3.62,3.62,0,0,0-.78,1.34,5.58,5.58,0,0,0-.27,1.8,5.52,5.52,0,0,0,.27,1.79,3.62,3.62,0,0,0,.78,1.34,3.22,3.22,0,0,0,1.21.84,4.36,4.36,0,0,0,3.18,0,3.22,3.22,0,0,0,1.21-.84,3.74,3.74,0,0,0,.77-1.34A5.26,5.26,0,0,0,272.26,270.53Z"/><path class="cls-1" d="M282.47,266.79a.49.49,0,0,1-.14.17.32.32,0,0,1-.2.06.53.53,0,0,1-.3-.13,2.92,2.92,0,0,0-.43-.28,3.1,3.1,0,0,0-.63-.29,2.84,2.84,0,0,0-.89-.13,2.56,2.56,0,0,0-.87.14,1.75,1.75,0,0,0-.63.35,1.59,1.59,0,0,0-.39.54,1.76,1.76,0,0,0-.12.66,1.22,1.22,0,0,0,.22.76,2,2,0,0,0,.59.51,5.31,5.31,0,0,0,.83.37l1,.32c.32.11.64.23.95.37a3.42,3.42,0,0,1,.84.53,2.44,2.44,0,0,1,.59.78,2.61,2.61,0,0,1,.22,1.14,3.75,3.75,0,0,1-.24,1.34,3,3,0,0,1-.71,1.08,3.33,3.33,0,0,1-1.14.73,4.2,4.2,0,0,1-1.55.27,4.64,4.64,0,0,1-1.92-.39,4.47,4.47,0,0,1-1.48-1l.43-.7.14-.14a.36.36,0,0,1,.2-.06.64.64,0,0,1,.36.17c.14.12.31.24.51.38a4,4,0,0,0,.75.38,3,3,0,0,0,1.06.17,2.67,2.67,0,0,0,.93-.15,1.92,1.92,0,0,0,.7-.4,1.81,1.81,0,0,0,.43-.63,2.09,2.09,0,0,0,.15-.81,1.36,1.36,0,0,0-.22-.81,1.86,1.86,0,0,0-.59-.52,3.3,3.3,0,0,0-.83-.36l-.95-.31a7.89,7.89,0,0,1-1-.36,2.87,2.87,0,0,1-.83-.53,2.57,2.57,0,0,1-.59-.81,3.19,3.19,0,0,1,0-2.33,3,3,0,0,1,.65-.95,3.32,3.32,0,0,1,1.05-.67,4,4,0,0,1,1.44-.25,4.63,4.63,0,0,1,1.66.29,3.8,3.8,0,0,1,1.31.83Z"/><path class="cls-1" d="M311.56,266.79a.49.49,0,0,1-.14.17.3.3,0,0,1-.2.06.53.53,0,0,1-.3-.13,2.92,2.92,0,0,0-.43-.28,3.1,3.1,0,0,0-.63-.29,2.84,2.84,0,0,0-.89-.13,2.56,2.56,0,0,0-.87.14,1.75,1.75,0,0,0-.63.35,1.44,1.44,0,0,0-.38.54,1.59,1.59,0,0,0-.13.66,1.22,1.22,0,0,0,.22.76,2,2,0,0,0,.59.51,5.31,5.31,0,0,0,.83.37l1,.32c.33.11.64.23,1,.37a3.56,3.56,0,0,1,.83.53,2.44,2.44,0,0,1,.59.78,2.61,2.61,0,0,1,.22,1.14,3.75,3.75,0,0,1-.24,1.34,3,3,0,0,1-.71,1.08,3.33,3.33,0,0,1-1.14.73,4.15,4.15,0,0,1-1.54.27,4.65,4.65,0,0,1-1.93-.39,4.58,4.58,0,0,1-1.48-1l.43-.7.14-.14a.36.36,0,0,1,.2-.06.61.61,0,0,1,.36.17c.14.12.31.24.51.38a4.36,4.36,0,0,0,.75.38,3,3,0,0,0,1.06.17,2.67,2.67,0,0,0,.93-.15,1.92,1.92,0,0,0,.7-.4,1.81,1.81,0,0,0,.43-.63,2.09,2.09,0,0,0,.15-.81,1.36,1.36,0,0,0-.22-.81,1.76,1.76,0,0,0-.59-.52,3.3,3.3,0,0,0-.83-.36l-.95-.31a7.89,7.89,0,0,1-1-.36,3,3,0,0,1-.83-.53,2.4,2.4,0,0,1-.58-.81,3.06,3.06,0,0,1,0-2.33,2.85,2.85,0,0,1,.64-.95,3.32,3.32,0,0,1,1.05-.67A4,4,0,0,1,309,265a4.63,4.63,0,0,1,1.66.29,3.8,3.8,0,0,1,1.31.83Z"/><path class="cls-1" d="M325.26,270.53a6.46,6.46,0,0,1-.38,2.24,5.16,5.16,0,0,1-1.1,1.75,4.85,4.85,0,0,1-1.69,1.14,6,6,0,0,1-4.37,0,4.85,4.85,0,0,1-1.69-1.14,5.13,5.13,0,0,1-1.09-1.75,6.63,6.63,0,0,1,0-4.48,5.18,5.18,0,0,1,1.09-1.76,4.88,4.88,0,0,1,1.69-1.15,6,6,0,0,1,4.37,0,4.88,4.88,0,0,1,1.69,1.15,5.2,5.2,0,0,1,1.1,1.76A6.42,6.42,0,0,1,325.26,270.53Zm-1.51,0a5.58,5.58,0,0,0-.27-1.8,3.74,3.74,0,0,0-.77-1.34,3.4,3.4,0,0,0-1.22-.85,4.48,4.48,0,0,0-3.17,0,3.4,3.4,0,0,0-1.22.85,3.74,3.74,0,0,0-.77,1.34,5.31,5.31,0,0,0-.28,1.8,5.26,5.26,0,0,0,.28,1.79,3.74,3.74,0,0,0,.77,1.34,3.26,3.26,0,0,0,1.22.84,4.34,4.34,0,0,0,3.17,0,3.26,3.26,0,0,0,1.22-.84,3.74,3.74,0,0,0,.77-1.34A5.52,5.52,0,0,0,323.75,270.53Z"/><path class="cls-1" d="M329.88,274.72h4.7V276h-6.17V265.09h1.47Z"/><path class="cls-1" d="M341.56,274.79a3,3,0,0,0,1.2-.23,2.35,2.35,0,0,0,.9-.64,2.74,2.74,0,0,0,.56-1,3.85,3.85,0,0,0,.2-1.25v-6.61h1.46v6.61a5,5,0,0,1-.3,1.74,4.12,4.12,0,0,1-.86,1.39,3.85,3.85,0,0,1-1.36.92,4.66,4.66,0,0,1-1.8.33,4.75,4.75,0,0,1-1.81-.33,3.94,3.94,0,0,1-1.36-.92,4.12,4.12,0,0,1-.86-1.39,5,5,0,0,1-.3-1.74v-6.61h1.46v6.6a3.85,3.85,0,0,0,.2,1.25,2.79,2.79,0,0,0,.56,1,2.58,2.58,0,0,0,.9.64A3.11,3.11,0,0,0,341.56,274.79Z"/><path class="cls-1" d="M357.2,273.71a.3.3,0,0,1,.22.1l.57.63a4.52,4.52,0,0,1-1.62,1.2,6,6,0,0,1-4.42,0,4.61,4.61,0,0,1-1.63-1.14,4.94,4.94,0,0,1-1-1.75,6.48,6.48,0,0,1-.38-2.25,6.25,6.25,0,0,1,.4-2.25,5.15,5.15,0,0,1,1.12-1.76,5,5,0,0,1,1.72-1.14,5.89,5.89,0,0,1,2.22-.41,5.39,5.39,0,0,1,2.07.37,5.34,5.34,0,0,1,1.54,1l-.48.68a.36.36,0,0,1-.52.1l-.27-.18-.35-.23a3.24,3.24,0,0,0-.49-.22,4,4,0,0,0-.65-.18,4.4,4.4,0,0,0-.86-.07,4.29,4.29,0,0,0-1.59.29,3.63,3.63,0,0,0-1.25.86,3.8,3.8,0,0,0-.81,1.35,5,5,0,0,0-.3,1.78,5.13,5.13,0,0,0,.3,1.81,4.08,4.08,0,0,0,.79,1.35,3.45,3.45,0,0,0,1.2.83,3.83,3.83,0,0,0,1.48.29,5.66,5.66,0,0,0,.87-.06,3.16,3.16,0,0,0,.72-.17,3.88,3.88,0,0,0,.61-.31,5.23,5.23,0,0,0,.58-.44A.37.37,0,0,1,357.2,273.71Z"/><path class="cls-1" d="M362.81,276h-1.47V265.09h1.47Z"/><path class="cls-1" d="M376.94,270.53a6.46,6.46,0,0,1-.38,2.24,5.16,5.16,0,0,1-1.1,1.75,4.85,4.85,0,0,1-1.69,1.14,6,6,0,0,1-4.37,0,4.85,4.85,0,0,1-1.69-1.14,5.13,5.13,0,0,1-1.09-1.75,6.63,6.63,0,0,1,0-4.48,5.18,5.18,0,0,1,1.09-1.76,4.88,4.88,0,0,1,1.69-1.15,6,6,0,0,1,4.37,0,4.88,4.88,0,0,1,1.69,1.15,5.2,5.2,0,0,1,1.1,1.76A6.42,6.42,0,0,1,376.94,270.53Zm-1.51,0a5.58,5.58,0,0,0-.27-1.8,3.74,3.74,0,0,0-.77-1.34,3.4,3.4,0,0,0-1.22-.85,4.48,4.48,0,0,0-3.17,0,3.4,3.4,0,0,0-1.22.85,3.74,3.74,0,0,0-.77,1.34,5.31,5.31,0,0,0-.28,1.8,5.26,5.26,0,0,0,.28,1.79,3.74,3.74,0,0,0,.77,1.34,3.26,3.26,0,0,0,1.22.84,4.34,4.34,0,0,0,3.17,0,3.26,3.26,0,0,0,1.22-.84,3.74,3.74,0,0,0,.77-1.34A5.52,5.52,0,0,0,375.43,270.53Z"/><path class="cls-1" d="M381.14,265.14a.93.93,0,0,1,.21.2l6.29,8.19,0-.38v-8.06h1.28V276h-.74a.54.54,0,0,1-.29-.07.69.69,0,0,1-.23-.2l-6.28-8.18c0,.13,0,.25,0,.37s0,.23,0,.34V276h-1.29V265.09h.75A.74.74,0,0,1,381.14,265.14Z"/><path class="cls-1" d="M399.38,265.09v1.2h-5.22v3.61h4.23v1.15h-4.23v3.71h5.22V276h-6.7V265.09Z"/><path class="cls-1" d="M408.19,266.79a.49.49,0,0,1-.14.17.32.32,0,0,1-.2.06.53.53,0,0,1-.3-.13,3.58,3.58,0,0,0-.43-.28,3.1,3.1,0,0,0-.63-.29,2.84,2.84,0,0,0-.89-.13,2.56,2.56,0,0,0-.87.14,1.75,1.75,0,0,0-.63.35,1.59,1.59,0,0,0-.39.54,1.76,1.76,0,0,0-.13.66,1.23,1.23,0,0,0,.23.76,1.85,1.85,0,0,0,.59.51,4.93,4.93,0,0,0,.83.37l1,.32c.32.11.64.23.95.37a3.62,3.62,0,0,1,.84.53,2.44,2.44,0,0,1,.59.78,2.61,2.61,0,0,1,.22,1.14,3.75,3.75,0,0,1-.24,1.34,3,3,0,0,1-.71,1.08,3.33,3.33,0,0,1-1.14.73,4.2,4.2,0,0,1-1.55.27,4.64,4.64,0,0,1-1.92-.39,4.47,4.47,0,0,1-1.48-1l.43-.7a.47.47,0,0,1,.14-.14.34.34,0,0,1,.2-.06.64.64,0,0,1,.36.17c.14.12.31.24.51.38a4.24,4.24,0,0,0,.74.38,3,3,0,0,0,1.07.17,2.67,2.67,0,0,0,.93-.15,1.87,1.87,0,0,0,.69-.4,1.84,1.84,0,0,0,.44-.63,2.09,2.09,0,0,0,.15-.81,1.36,1.36,0,0,0-.22-.81,1.86,1.86,0,0,0-.59-.52,3.3,3.3,0,0,0-.83-.36l-.95-.31a7.89,7.89,0,0,1-1-.36A2.87,2.87,0,0,1,403,270a2.57,2.57,0,0,1-.59-.81,2.91,2.91,0,0,1-.22-1.21,2.87,2.87,0,0,1,.22-1.12,3,3,0,0,1,.65-.95,3.11,3.11,0,0,1,1.05-.67,4,4,0,0,1,1.44-.25,4.67,4.67,0,0,1,1.66.29,3.9,3.9,0,0,1,1.31.83Z"/><path class="cls-1" d="M235.16,170.08v-.9c0-4.32-7.91-9.18-18.53-9.18-10.8,0-18.72,4.86-18.72,9.18v14.4c0,4.14,6.84,8.46,16.38,9.18,0,0,8.56.55,9.54.72,9.17,1.44,20.69,7.38,20.69,18v14.57c0,13.32-17.1,18.54-27.89,18.54s-28.08-5.22-28.08-18.54v-9.36a9.35,9.35,0,0,1,9.36,9v.36c0,4.32,7.92,9.18,18.72,9.18,10.62,0,18.53-4.86,18.53-9.18V211.48c0-7.2-15.11-9.36-20.51-9.36l-4.68-.36c-9.18-1.44-21.42-7.38-21.42-18.18v-14.4c0-13.31,17.28-18.54,28.08-18.54,10.62,0,27.89,5.23,27.89,18.36v9.9A9.44,9.44,0,0,1,235.16,170.08Z"/><path class="cls-1" d="M258.56,196.36V160.18a9.48,9.48,0,0,1,9.18-9.35h.18v41.93A13.52,13.52,0,0,0,258.56,196.36Zm0,10.44a9.3,9.3,0,0,1,9.36-9.36v37.79a9.44,9.44,0,0,1-9.36,8.82Z"/><path class="cls-1" d="M282.67,169.54c0-13.32,17.28-18.54,28.08-18.54s27.89,5.22,27.89,18.54v26.82a13.49,13.49,0,0,0-9.35-3.6V169.54c0-4.32-8.1-9.18-18.54-9.18-10.8,0-18.72,4.86-18.72,9.18v23.22a13.52,13.52,0,0,0-9.36,3.6Zm0,37.26a9.3,9.3,0,0,1,9.36-9.36v28.07c0,4.32,7.92,9.18,18.72,9.18,10.62,0,18.54-4.86,18.54-9.18V197.44a9.36,9.36,0,0,1,9.35,9.18v18.89c0,13.32-17.09,18.54-27.89,18.54s-28.08-5.22-28.08-18.54Z"/><path class="cls-1" d="M381.12,151c10.79,0,27.89,5.22,27.89,18.54v26.82a13.52,13.52,0,0,0-9.36-3.6V169.54c0-4.32-7.92-9.18-18.53-9.18-10.8,0-18.72,4.86-18.72,9.18v23.22a13.52,13.52,0,0,0-9.36,3.6V169.54C353,156,370.32,151,381.12,151ZM353,206.8a9.3,9.3,0,0,1,9.36-9.36v37.79a9.44,9.44,0,0,1-9.36,8.82Zm46.61-9.36a9.37,9.37,0,0,1,9.36,9.18v37.43a9.44,9.44,0,0,1-9.36-8.82Z"/><circle class="cls-1" cx="263.58" cy="135.33" r="7.33"/></svg>