<?xml version="1.0" encoding="UTF-8"?>
<!DOCTYPE svg PUBLIC "-//W3C//DTD SVG 1.1//EN" "http://www.w3.org/Graphics/SVG/1.1/DTD/svg11.dtd">
<!-- Creator: CorelDRAW -->
<svg xmlns="http://www.w3.org/2000/svg" xml:space="preserve" width="2048px" height="2048px" style="shape-rendering:geometricPrecision; text-rendering:geometricPrecision; image-rendering:optimizeQuality; fill-rule:evenodd; clip-rule:evenodd"
viewBox="0 0 2048 2048"
 xmlns:xlink="http://www.w3.org/1999/xlink">
 <defs>
  <style type="text/css">
   <![CDATA[
    .fil2 {fill:none}
    .fil1 {fill:#7E7E7E}
    .fil0 {fill:#A4A4A5}
   ]]>
  </style>
 </defs>
 <g id="Layer_x0020_1">
  <metadata id="CorelCorpID_0Corel-Layer"/>
  <g id="_316089560">
   <path id="_316089680" class="fil0" d="M942.115 487.278l0 -231.279 158.698 0 0 152.3 -0.238583 0 0 158.778c-0.982678,12.6898 -4.95237,24.5421 -11.2051,34.8603 -13.911,22.9465 -39.124,38.2878 -67.9052,38.2878 0,0 0,0 -0.0011811,0 0,0 0,0 0,0 -103.061,0 -200.894,40.5177 -273.768,113.394 -72.8764,72.8741 -113.394,170.707 -113.394,273.768 0,85.3867 28.011,168.052 79.9938,235.799 44.2583,57.6827 103.587,101.529 171.478,126.872l0 165.88 -2.72244 -0.627166c-1.89685,-0.437008 -0.527953,-0.0826772 -2.8063,-0.690945 -116.27,-31.0654 -218.579,-99.5812 -291.827,-195.043 -73.2154,-95.4142 -112.814,-211.915 -112.814,-332.19 0,-145.202 57.2091,-283.305 159.881,-385.979 83.7579,-83.7579 191.095,-137.26 306.631,-154.13z"/>
   <path id="_316089608" class="fil1" d="M1105.88 1560.72l0 231.279 -158.697 0 0 -114.843 0.0248032 0 0 -192.082c1.08662,-42.8611 36.202,-77.3008 79.3241,-77.3008 0,0 0,0 0,0 0,0 0,0 0,0 103.06,0 200.894,-40.5189 273.767,-113.394 72.8753,-72.8741 113.397,-170.706 113.397,-273.768 0,-85.3855 -28.0099,-168.05 -79.9926,-235.797 -44.3115,-57.7477 -103.719,-101.626 -171.695,-126.952l0 -165.816 1.91693 0.412205c2.81693,0.605906 0.948426,0.152362 3.81378,0.916536 116.291,31.0193 218.593,99.5847 291.841,195.046 73.213,95.4166 112.812,211.916 112.812,332.19 0,145.204 -57.2079,283.305 -159.879,385.979 -83.7591,83.7591 -191.098,137.261 -306.633,154.13z"/>
  </g>
 </g>
 <rect class="fil2" width="2048" height="2048"/>
</svg>
