<svg xmlns="http://www.w3.org/2000/svg" width="128" height="128" viewBox="0 0 128 128">
  <title>Internet Speed</title>
  <path d="M114,15.25H14A9.761,9.761,0,0,0,4.25,25v77A10.762,10.762,0,0,0,15,112.75h98A10.762,10.762,0,0,0,123.75,102V25A9.761,9.761,0,0,0,114,15.25ZM120.25,25V36.683H52.888L61.37,18.75H114A6.257,6.257,0,0,1,120.25,25ZM14,18.75H57.5L49.016,36.683H7.75V25A6.257,6.257,0,0,1,14,18.75Zm99,90.5H15A7.258,7.258,0,0,1,7.75,102V40.183h112.5V102A7.258,7.258,0,0,1,113,109.25Z"/>
  <path d="M21.57,33.467a5.75,5.75,0,1,0-5.75-5.75A5.756,5.756,0,0,0,21.57,33.467Zm0-8a2.25,2.25,0,1,1-2.25,2.25A2.253,2.253,0,0,1,21.57,25.467Z"/>
  <path d="M37.626,33.467a5.75,5.75,0,1,0-5.75-5.75A5.756,5.756,0,0,0,37.626,33.467Zm0-8a2.25,2.25,0,1,1-2.25,2.25A2.253,2.253,0,0,1,37.626,25.467Z"/>
  <path d="M67.522,29.467h44.745a1.75,1.75,0,0,0,0-3.5H67.522a1.75,1.75,0,0,0,0,3.5Z"/>
  <path d="M93.021,56.428a1.4,1.4,0,0,0-.114-.117,1.642,1.642,0,0,0-.264-.18,47.645,47.645,0,0,0-57.29,0,1.7,1.7,0,0,0-.26.177,1.4,1.4,0,0,0-.114.117A47.691,47.691,0,0,0,16.25,94.31,1.75,1.75,0,0,0,18,96.06H54.107a10.044,10.044,0,0,0,19.786,0H110a1.75,1.75,0,0,0,1.75-1.75A47.691,47.691,0,0,0,93.021,56.428ZM64,100.868a6.561,6.561,0,0,1-6.553-6.525c0-.011,0-.022,0-.033s0-.021,0-.031a6.553,6.553,0,0,1,13.106,0c0,.01,0,.02,0,.031s0,.022,0,.033A6.561,6.561,0,0,1,64,100.868Zm5.935-14.652A9.985,9.985,0,0,0,64.818,84.3c2.244-3.508,4.762-7.355,6.821-10.478C71.152,77.532,70.537,82.092,69.935,86.216Zm3.956,6.344a9.951,9.951,0,0,0-.944-2.812c1.411-9.2,3.1-22.794,3.119-22.933a1.749,1.749,0,0,0-3.19-1.188c-.078.116-7.691,11.5-12.65,19.373a10.078,10.078,0,0,0-6.117,7.56H19.784A44.02,44.02,0,0,1,22.128,80l7.989,2.509a1.75,1.75,0,1,0,1.049-3.34l-7.76-2.437a44.478,44.478,0,0,1,12.58-16.636l4.3,5.116a1.75,1.75,0,0,0,2.68-2.252l-4.183-4.977A43.964,43.964,0,0,1,62.25,50.1v7.5a1.75,1.75,0,0,0,3.5,0V50.1a43.964,43.964,0,0,1,23.467,7.878l-4.183,4.977a1.75,1.75,0,0,0,2.68,2.252l4.3-5.116a44.478,44.478,0,0,1,12.58,16.636l-7.76,2.437a1.75,1.75,0,0,0,1.049,3.34L105.872,80a44.02,44.02,0,0,1,2.344,12.562Z"/>
</svg>
