<svg id="Capa_1" data-name="Capa 1" xmlns="http://www.w3.org/2000/svg" xmlns:xlink="http://www.w3.org/1999/xlink" viewBox="0 0 595.82 381.93"><defs><style>.cls-1{fill:#fff;}</style></defs><title>SION_LOGO [Recuperado]</title><image width="12667" height="8750" transform="scale(0.05 0.04)" xlink:href="C:%5CUsers%5Cargem%5CDownloads%5Cvisax-6NoEpRc5x2s-unsplash.jpg"/><path class="cls-1" d="M298.62,263.45a6.92,6.92,0,0,1-1.21,3.62l1.85,2.09h-1.89l-.87-1a3.65,3.65,0,0,1-3,1.22c-2.09,0-3.41-1.19-3.41-3a3.19,3.19,0,0,1,2.36-3.09,3.73,3.73,0,0,1-1.09-2.41,2.45,2.45,0,0,1,2.76-2.49,2.35,2.35,0,0,1,2.62,2.4c0,1.35-1.19,2.25-2.31,2.75l2.15,2.46a5.08,5.08,0,0,0,.65-2.56Zm-4.88,4.74a2.61,2.61,0,0,0,2-1l-2.55-3c-.8.55-1.48,1.05-1.48,2.09A2,2,0,0,0,293.74,268.19Zm0-5.48c.63-.31,1.59-1,1.59-1.85a1.14,1.14,0,0,0-1.26-1.31,1.24,1.24,0,0,0-1.27,1.37A2.79,2.79,0,0,0,293.7,262.71Z"/><path class="cls-1" d="M190.45,265.24v4.06H189V258.44h3.21a6,6,0,0,1,1.79.24,3.45,3.45,0,0,1,1.26.68,2.85,2.85,0,0,1,.75,1.06,3.82,3.82,0,0,1,.24,1.39,3.43,3.43,0,0,1-.26,1.38,3,3,0,0,1-.78,1.09,3.62,3.62,0,0,1-1.27.71,5.39,5.39,0,0,1-1.73.25Zm0-1.17h1.75a3.46,3.46,0,0,0,1.11-.16,2.17,2.17,0,0,0,.8-.47,1.91,1.91,0,0,0,.5-.72,2.42,2.42,0,0,0,.16-.91,2.06,2.06,0,0,0-.64-1.62,2.77,2.77,0,0,0-1.93-.59h-1.75Z"/><path class="cls-1" d="M200.85,264.77v4.53h-1.46V258.44h3.07a6.63,6.63,0,0,1,1.78.21,3.5,3.5,0,0,1,1.24.6,2.36,2.36,0,0,1,.72.95,3.35,3.35,0,0,1,.06,2.33,2.93,2.93,0,0,1-.53.9,3.1,3.1,0,0,1-.84.67,4.21,4.21,0,0,1-1.13.43,1.42,1.42,0,0,1,.49.46l3.17,4.31h-1.31a.65.65,0,0,1-.59-.31l-2.82-3.88a.76.76,0,0,0-.28-.26,1,1,0,0,0-.45-.08Zm0-1.07h1.54a3.82,3.82,0,0,0,1.13-.15,2.37,2.37,0,0,0,.82-.44,1.85,1.85,0,0,0,.5-.68,2.21,2.21,0,0,0,.17-.87,1.76,1.76,0,0,0-.64-1.47,3.18,3.18,0,0,0-1.91-.49h-1.61Z"/><path class="cls-1" d="M219.88,263.88a6.24,6.24,0,0,1-.39,2.24,5.13,5.13,0,0,1-1.09,1.75,4.85,4.85,0,0,1-1.69,1.14,5.73,5.73,0,0,1-2.19.41,5.65,5.65,0,0,1-2.18-.41,4.85,4.85,0,0,1-1.69-1.14,5.16,5.16,0,0,1-1.1-1.75,6.79,6.79,0,0,1,0-4.48,5.2,5.2,0,0,1,1.1-1.76,4.88,4.88,0,0,1,1.69-1.15,5.65,5.65,0,0,1,2.18-.41,5.73,5.73,0,0,1,2.19.41,4.88,4.88,0,0,1,1.69,1.15,5.18,5.18,0,0,1,1.09,1.76A6.2,6.2,0,0,1,219.88,263.88Zm-1.51,0a5.58,5.58,0,0,0-.27-1.8,3.76,3.76,0,0,0-.78-1.34,3.28,3.28,0,0,0-1.21-.85,4.34,4.34,0,0,0-3.17,0,3.31,3.31,0,0,0-1.22.85,3.62,3.62,0,0,0-.78,1.34,6.1,6.1,0,0,0,0,3.59,3.62,3.62,0,0,0,.78,1.34,3.18,3.18,0,0,0,1.22.84,4.48,4.48,0,0,0,3.17,0,3.14,3.14,0,0,0,1.21-.84,3.76,3.76,0,0,0,.78-1.34A5.56,5.56,0,0,0,218.37,263.88Z"/><path class="cls-1" d="M226.6,265v4.32h-1.46V265l-4-6.54h1.29a.45.45,0,0,1,.31.1,1.59,1.59,0,0,1,.2.24l2.48,4.23a4.81,4.81,0,0,1,.26.5c.06.15.13.31.18.46l.18-.47a4.55,4.55,0,0,1,.25-.49l2.48-4.23a1,1,0,0,1,.19-.23.44.44,0,0,1,.3-.11h1.31Z"/><path class="cls-1" d="M239.78,258.44v1.2h-5.21v3.61h4.22v1.15h-4.22v3.71h5.21v1.19h-6.69V258.44Z"/><path class="cls-1" d="M250.69,267.06a.3.3,0,0,1,.22.1l.58.63a4.82,4.82,0,0,1-1.62,1.2,5.5,5.5,0,0,1-2.29.44,5.36,5.36,0,0,1-2.13-.41,4.65,4.65,0,0,1-1.64-1.14,5.25,5.25,0,0,1-1-1.75,6.48,6.48,0,0,1-.37-2.25,6,6,0,0,1,.4-2.25,4.92,4.92,0,0,1,2.84-2.9,5.89,5.89,0,0,1,2.22-.41,5.19,5.19,0,0,1,2.06.37,5.34,5.34,0,0,1,1.54,1l-.47.67a.4.4,0,0,1-.13.13.33.33,0,0,1-.19.05.44.44,0,0,1-.21-.07l-.26-.18-.36-.23a3.08,3.08,0,0,0-.48-.23,3.51,3.51,0,0,0-.66-.17,4.23,4.23,0,0,0-.85-.08,4.15,4.15,0,0,0-1.6.3,3.5,3.5,0,0,0-1.24.86,4,4,0,0,0-.82,1.35,5.23,5.23,0,0,0-.29,1.78,5.37,5.37,0,0,0,.29,1.81A4,4,0,0,0,245,267a3.23,3.23,0,0,0,1.19.84,3.88,3.88,0,0,0,1.49.29,5.75,5.75,0,0,0,.87-.06,3.08,3.08,0,0,0,.71-.18,3.23,3.23,0,0,0,.62-.3,4.48,4.48,0,0,0,.57-.45A.42.42,0,0,1,250.69,267.06Z"/><path class="cls-1" d="M262,258.44v1.24h-3.51v9.62H257v-9.62h-3.52v-1.24Z"/><path class="cls-1" d="M274,263.88a6.46,6.46,0,0,1-.38,2.24,5.16,5.16,0,0,1-1.1,1.75,4.76,4.76,0,0,1-1.69,1.14,6,6,0,0,1-4.37,0,4.85,4.85,0,0,1-1.69-1.14,5.13,5.13,0,0,1-1.09-1.75,6.63,6.63,0,0,1,0-4.48,5.18,5.18,0,0,1,1.09-1.76,4.88,4.88,0,0,1,1.69-1.15,6,6,0,0,1,4.37,0,4.79,4.79,0,0,1,1.69,1.15,5.2,5.2,0,0,1,1.1,1.76A6.42,6.42,0,0,1,274,263.88Zm-1.51,0a5.58,5.58,0,0,0-.27-1.8,3.74,3.74,0,0,0-.77-1.34,3.45,3.45,0,0,0-1.21-.85,4.11,4.11,0,0,0-1.6-.3,4,4,0,0,0-1.58.3,3.4,3.4,0,0,0-1.22.85,3.74,3.74,0,0,0-.77,1.34,5.89,5.89,0,0,0,0,3.59,3.74,3.74,0,0,0,.77,1.34,3.26,3.26,0,0,0,1.22.84,4,4,0,0,0,1.58.29,4.11,4.11,0,0,0,1.6-.29,3.3,3.3,0,0,0,1.21-.84,3.74,3.74,0,0,0,.77-1.34A5.56,5.56,0,0,0,272.47,263.88Z"/><path class="cls-1" d="M282.69,260.14a.49.49,0,0,1-.14.17.32.32,0,0,1-.2.06.62.62,0,0,1-.3-.13c-.11-.09-.26-.18-.43-.29a4.21,4.21,0,0,0-.63-.28,2.57,2.57,0,0,0-.89-.13,2.84,2.84,0,0,0-.87.13,2,2,0,0,0-.64.36,1.71,1.71,0,0,0-.38.54,1.76,1.76,0,0,0-.13.66,1.25,1.25,0,0,0,.23.76,2,2,0,0,0,.59.51,4.23,4.23,0,0,0,.83.36l1,.33c.32.11.64.23.95.37a3.62,3.62,0,0,1,.84.53,2.44,2.44,0,0,1,.59.78,2.61,2.61,0,0,1,.22,1.14,3.65,3.65,0,0,1-.24,1.33,3.07,3.07,0,0,1-.71,1.09,3.33,3.33,0,0,1-1.14.73,4.2,4.2,0,0,1-1.55.27,4.64,4.64,0,0,1-1.92-.39,4.47,4.47,0,0,1-1.48-1l.42-.7a.5.5,0,0,1,.15-.14.33.33,0,0,1,.19-.06.64.64,0,0,1,.37.17,5.2,5.2,0,0,0,.51.38,3.65,3.65,0,0,0,.74.37,2.83,2.83,0,0,0,1.07.17,2.67,2.67,0,0,0,.93-.14,2.12,2.12,0,0,0,.69-.4,1.84,1.84,0,0,0,.44-.63,2.09,2.09,0,0,0,.15-.81,1.36,1.36,0,0,0-.22-.81,1.86,1.86,0,0,0-.59-.52,3.3,3.3,0,0,0-.83-.36l-.95-.31a7.89,7.89,0,0,1-1-.36,2.87,2.87,0,0,1-.83-.53,2.57,2.57,0,0,1-.59-.81,2.91,2.91,0,0,1-.22-1.21,2.87,2.87,0,0,1,.22-1.12,2.93,2.93,0,0,1,.65-.95,3.11,3.11,0,0,1,1.05-.67,3.81,3.81,0,0,1,1.44-.25,4.67,4.67,0,0,1,1.66.29,3.9,3.9,0,0,1,1.31.83Z"/><path class="cls-1" d="M311.78,260.14a.49.49,0,0,1-.14.17.32.32,0,0,1-.2.06.62.62,0,0,1-.3-.13c-.11-.09-.26-.18-.43-.29a3.79,3.79,0,0,0-.63-.28,2.57,2.57,0,0,0-.89-.13,2.84,2.84,0,0,0-.87.13,1.93,1.93,0,0,0-.63.36,1.59,1.59,0,0,0-.39.54,1.76,1.76,0,0,0-.13.66,1.25,1.25,0,0,0,.23.76,2,2,0,0,0,.59.51,4.23,4.23,0,0,0,.83.36l1,.33c.32.11.64.23,1,.37a3.62,3.62,0,0,1,.84.53,2.44,2.44,0,0,1,.59.78,2.61,2.61,0,0,1,.22,1.14,3.65,3.65,0,0,1-.24,1.33,3.07,3.07,0,0,1-.71,1.09,3.33,3.33,0,0,1-1.14.73,4.2,4.2,0,0,1-1.55.27,4.64,4.64,0,0,1-1.92-.39,4.47,4.47,0,0,1-1.48-1l.42-.7a.5.5,0,0,1,.15-.14.34.34,0,0,1,.2-.06.64.64,0,0,1,.36.17c.14.12.31.24.51.38a3.65,3.65,0,0,0,.74.37,2.83,2.83,0,0,0,1.07.17,2.67,2.67,0,0,0,.93-.14,2.12,2.12,0,0,0,.69-.4,1.84,1.84,0,0,0,.44-.63,2.09,2.09,0,0,0,.15-.81,1.36,1.36,0,0,0-.22-.81,1.86,1.86,0,0,0-.59-.52,3.3,3.3,0,0,0-.83-.36l-.95-.31a7.89,7.89,0,0,1-1-.36,2.87,2.87,0,0,1-.83-.53,2.57,2.57,0,0,1-.59-.81,2.91,2.91,0,0,1-.22-1.21,2.87,2.87,0,0,1,.22-1.12,2.93,2.93,0,0,1,.65-.95,3.11,3.11,0,0,1,1.05-.67,3.81,3.81,0,0,1,1.44-.25,4.67,4.67,0,0,1,1.66.29,3.9,3.9,0,0,1,1.31.83Z"/><path class="cls-1" d="M325.48,263.88a6.24,6.24,0,0,1-.39,2.24,5,5,0,0,1-1.09,1.75,4.85,4.85,0,0,1-1.69,1.14,5.73,5.73,0,0,1-2.19.41,5.65,5.65,0,0,1-2.18-.41,4.85,4.85,0,0,1-1.69-1.14,5,5,0,0,1-1.09-1.75,6.63,6.63,0,0,1,0-4.48,5,5,0,0,1,1.09-1.76,4.88,4.88,0,0,1,1.69-1.15,5.65,5.65,0,0,1,2.18-.41,5.73,5.73,0,0,1,2.19.41,4.88,4.88,0,0,1,1.69,1.15,5,5,0,0,1,1.09,1.76A6.2,6.2,0,0,1,325.48,263.88Zm-1.51,0a5.58,5.58,0,0,0-.27-1.8,3.74,3.74,0,0,0-.77-1.34,3.4,3.4,0,0,0-1.22-.85,4.34,4.34,0,0,0-3.17,0,3.4,3.4,0,0,0-1.22.85,3.76,3.76,0,0,0-.78,1.34,6.1,6.1,0,0,0,0,3.59,3.76,3.76,0,0,0,.78,1.34,3.26,3.26,0,0,0,1.22.84,4.48,4.48,0,0,0,3.17,0,3.26,3.26,0,0,0,1.22-.84,3.74,3.74,0,0,0,.77-1.34A5.56,5.56,0,0,0,324,263.88Z"/><path class="cls-1" d="M330.1,268.07h4.7v1.23h-6.18V258.44h1.48Z"/><path class="cls-1" d="M341.78,268.14a3,3,0,0,0,1.2-.23,2.43,2.43,0,0,0,.9-.64,2.7,2.7,0,0,0,.56-1,3.77,3.77,0,0,0,.19-1.25v-6.6h1.47V265a5,5,0,0,1-.3,1.75,4.12,4.12,0,0,1-.86,1.39,3.85,3.85,0,0,1-1.36.92,5.1,5.1,0,0,1-3.61,0,3.91,3.91,0,0,1-2.22-2.31,5,5,0,0,1-.3-1.75v-6.6h1.46V265a4.15,4.15,0,0,0,.19,1.25,2.68,2.68,0,0,0,.57,1,2.48,2.48,0,0,0,.9.65A3.07,3.07,0,0,0,341.78,268.14Z"/><path class="cls-1" d="M357.41,267.06a.28.28,0,0,1,.22.1l.58.63a4.63,4.63,0,0,1-1.62,1.2,6,6,0,0,1-4.42,0,4.61,4.61,0,0,1-1.63-1.14,5.11,5.11,0,0,1-1.05-1.75,6.72,6.72,0,0,1-.37-2.25,6,6,0,0,1,.4-2.25,5,5,0,0,1,2.84-2.9,5.89,5.89,0,0,1,2.22-.41,5.13,5.13,0,0,1,2.06.37,5.39,5.39,0,0,1,1.55,1l-.48.67a.51.51,0,0,1-.12.13.37.37,0,0,1-.2.05.47.47,0,0,1-.21-.07l-.26-.18-.36-.23a2.7,2.7,0,0,0-.48-.23,3.4,3.4,0,0,0-.65-.17,4.42,4.42,0,0,0-.86-.08,4.09,4.09,0,0,0-1.59.3,3.54,3.54,0,0,0-1.25.86,4,4,0,0,0-.82,1.35,5.23,5.23,0,0,0-.29,1.78,5.37,5.37,0,0,0,.29,1.81,4,4,0,0,0,.8,1.34,3.31,3.31,0,0,0,1.19.84,3.88,3.88,0,0,0,1.49.29,5.75,5.75,0,0,0,.87-.06,3.36,3.36,0,0,0,1.33-.48,4.48,4.48,0,0,0,.57-.45A.42.42,0,0,1,357.41,267.06Z"/><path class="cls-1" d="M363,269.3h-1.47V258.44H363Z"/><path class="cls-1" d="M377.16,263.88a6.24,6.24,0,0,1-.39,2.24,5,5,0,0,1-1.09,1.75A4.85,4.85,0,0,1,374,269a5.73,5.73,0,0,1-2.19.41,5.65,5.65,0,0,1-2.18-.41,4.85,4.85,0,0,1-1.69-1.14,5,5,0,0,1-1.09-1.75,6.63,6.63,0,0,1,0-4.48,5,5,0,0,1,1.09-1.76,4.88,4.88,0,0,1,1.69-1.15,5.65,5.65,0,0,1,2.18-.41,5.73,5.73,0,0,1,2.19.41,4.88,4.88,0,0,1,1.69,1.15,5,5,0,0,1,1.09,1.76A6.2,6.2,0,0,1,377.16,263.88Zm-1.51,0a5.58,5.58,0,0,0-.27-1.8,3.62,3.62,0,0,0-.78-1.34,3.28,3.28,0,0,0-1.21-.85,4.34,4.34,0,0,0-3.17,0,3.4,3.4,0,0,0-1.22.85,3.62,3.62,0,0,0-.78,1.34,6.1,6.1,0,0,0,0,3.59A3.62,3.62,0,0,0,369,267a3.26,3.26,0,0,0,1.22.84,4.48,4.48,0,0,0,3.17,0,3.14,3.14,0,0,0,1.21-.84,3.62,3.62,0,0,0,.78-1.34A5.56,5.56,0,0,0,375.65,263.88Z"/><path class="cls-1" d="M381.35,258.49a.65.65,0,0,1,.22.2l6.29,8.19,0-.38c0-.13,0-.25,0-.36v-7.7h1.29V269.3h-.74a.62.62,0,0,1-.29-.06.6.6,0,0,1-.23-.2l-6.29-8.18,0,.37v8.07H380.3V258.44h.76A.69.69,0,0,1,381.35,258.49Z"/><path class="cls-1" d="M399.6,258.44v1.2h-5.22v3.61h4.22v1.15h-4.22v3.71h5.22v1.19h-6.7V258.44Z"/><path class="cls-1" d="M408.41,260.14a.63.63,0,0,1-.14.17.32.32,0,0,1-.2.06.55.55,0,0,1-.3-.13c-.11-.09-.26-.18-.43-.29a4.72,4.72,0,0,0-.63-.28,2.61,2.61,0,0,0-.89-.13,2.84,2.84,0,0,0-.87.13,1.88,1.88,0,0,0-.64.36,1.56,1.56,0,0,0-.38.54,1.59,1.59,0,0,0-.13.66,1.25,1.25,0,0,0,.23.76,2,2,0,0,0,.59.51,4.23,4.23,0,0,0,.83.36l1,.33c.32.11.64.23.95.37a3.62,3.62,0,0,1,.84.53,2.44,2.44,0,0,1,.59.78A2.61,2.61,0,0,1,409,266a3.65,3.65,0,0,1-.24,1.33,3.21,3.21,0,0,1-.71,1.09,3.29,3.29,0,0,1-1.15.73,4.11,4.11,0,0,1-1.54.27,4.64,4.64,0,0,1-1.92-.39,4.47,4.47,0,0,1-1.48-1l.42-.7a.5.5,0,0,1,.15-.14.33.33,0,0,1,.19-.06.64.64,0,0,1,.37.17,4.22,4.22,0,0,0,.51.38,3.4,3.4,0,0,0,.74.37,2.83,2.83,0,0,0,1.07.17,2.67,2.67,0,0,0,.93-.14,2.12,2.12,0,0,0,.69-.4,1.84,1.84,0,0,0,.44-.63,2.09,2.09,0,0,0,.15-.81,1.36,1.36,0,0,0-.22-.81,1.86,1.86,0,0,0-.59-.52,3.3,3.3,0,0,0-.83-.36l-1-.31a8.41,8.41,0,0,1-.95-.36,2.87,2.87,0,0,1-.83-.53,2.57,2.57,0,0,1-.59-.81,2.91,2.91,0,0,1-.22-1.21,2.87,2.87,0,0,1,.22-1.12,2.93,2.93,0,0,1,.65-.95,3.11,3.11,0,0,1,1.05-.67,3.78,3.78,0,0,1,1.44-.25,4.67,4.67,0,0,1,1.66.29,3.9,3.9,0,0,1,1.31.83Z"/><circle class="cls-1" cx="263.58" cy="128.68" r="7.33"/><path class="cls-1" d="M235.16,163.43v-.9c0-4.32-7.91-9.18-18.53-9.18-10.8,0-18.72,4.86-18.72,9.18v14.4c0,4.14,6.84,8.46,16.38,9.18,0,0,8.56.55,9.54.72,9.17,1.44,20.69,7.38,20.69,18V219.4c0,13.32-17.1,18.54-27.89,18.54s-28.08-5.22-28.08-18.54V210a9.35,9.35,0,0,1,9.36,9v.36c0,4.32,7.92,9.18,18.72,9.18,10.62,0,18.53-4.86,18.53-9.18V204.83c0-7.2-15.11-9.36-20.51-9.36l-4.68-.36c-9.18-1.44-21.42-7.38-21.42-18.18v-14.4c0-13.31,17.28-18.54,28.08-18.54,10.62,0,27.89,5.23,27.89,18.36v9.9A9.44,9.44,0,0,1,235.16,163.43Z"/><path class="cls-1" d="M258.56,189.71V153.53a9.5,9.5,0,0,1,9.18-9.36h.18v41.94A13.52,13.52,0,0,0,258.56,189.71Zm0,10.43a9.29,9.29,0,0,1,9.36-9.35v37.79a9.44,9.44,0,0,1-9.36,8.82Z"/><path class="cls-1" d="M282.67,162.89c0-13.32,17.28-18.54,28.08-18.54s27.89,5.22,27.89,18.54v26.82a13.49,13.49,0,0,0-9.35-3.6V162.89c0-4.32-8.1-9.18-18.54-9.18-10.8,0-18.72,4.86-18.72,9.18v23.22a13.52,13.52,0,0,0-9.36,3.6Zm0,37.25a9.29,9.29,0,0,1,9.36-9.35v28.07c0,4.32,7.92,9.18,18.72,9.18,10.62,0,18.54-4.86,18.54-9.18V190.79a9.35,9.35,0,0,1,9.35,9.18v18.89c0,13.32-17.09,18.54-27.89,18.54s-28.08-5.22-28.08-18.54Z"/><path class="cls-1" d="M381.12,144.35c10.79,0,27.89,5.22,27.89,18.54v26.82a13.52,13.52,0,0,0-9.36-3.6V162.89c0-4.32-7.92-9.18-18.53-9.18-10.8,0-18.72,4.86-18.72,9.18v23.22a13.52,13.52,0,0,0-9.36,3.6V162.89C353,149.39,370.32,144.35,381.12,144.35ZM353,200.14a9.29,9.29,0,0,1,9.36-9.35v37.79A9.44,9.44,0,0,1,353,237.4Zm46.61-9.35A9.37,9.37,0,0,1,409,200V237.4a9.44,9.44,0,0,1-9.36-8.82Z"/></svg>