<?xml version="1.0" encoding="utf-8"?>
<!-- Generator: Adobe Illustrator 16.0.0, SVG Export Plug-In . SVG Version: 6.00 Build 0)  -->
<!DOCTYPE svg PUBLIC "-//W3C//DTD SVG 1.1//EN" "http://www.w3.org/Graphics/SVG/1.1/DTD/svg11.dtd">
<svg version="1.1" id="Layer_1" xmlns="http://www.w3.org/2000/svg" xmlns:xlink="http://www.w3.org/1999/xlink" x="0px" y="0px"
	 width="128px" height="128px" viewBox="0 0 128 128" enable-background="new 0 0 128 128" xml:space="preserve">
<g>
	<g>
		<path fill="#282D33" d="M64.239,99.513l-0.026-4.01c1.249-0.008,2.51-0.093,3.746-0.253l0.515,3.976
			C67.075,99.407,65.65,99.504,64.239,99.513z M60.004,99.284c-1.41-0.162-2.816-0.413-4.181-0.744l0.947-3.896
			c1.204,0.293,2.447,0.514,3.693,0.659L60.004,99.284z M72.644,98.423l-1.003-3.882c1.211-0.313,2.412-0.703,3.57-1.159
			l1.471,3.729C75.371,97.628,74.013,98.069,72.644,98.423z M51.766,97.285c-1.318-0.498-2.621-1.084-3.873-1.742l1.867-3.549
			c1.106,0.582,2.258,1.101,3.423,1.54L51.766,97.285z M80.524,95.317l-1.913-3.524c1.092-0.592,2.162-1.262,3.181-1.989l2.33,3.264
			C82.97,93.89,81.76,94.646,80.524,95.317z M44.265,93.34c-1.156-0.802-2.277-1.684-3.334-2.621l2.663-2.998
			c0.937,0.832,1.931,1.613,2.955,2.324L44.265,93.34z M87.419,90.402l-2.702-2.962c0.92-0.84,1.801-1.747,2.619-2.696l3.037,2.617
			C89.451,88.432,88.457,89.455,87.419,90.402z M37.937,87.717c-0.934-1.054-1.813-2.175-2.613-3.332l3.296-2.282
			c0.711,1.026,1.491,2.022,2.319,2.958L37.937,87.717z M92.942,83.989l-3.326-2.237c0.697-1.038,1.34-2.128,1.911-3.242
			l3.568,1.829C94.453,81.593,93.729,82.821,92.942,83.989z M33.123,80.764c-0.659-1.244-1.249-2.543-1.755-3.858l3.742-1.438
			c0.449,1.167,0.973,2.318,1.557,3.423L33.123,80.764z M96.799,76.454l-3.761-1.388c0.433-1.173,0.8-2.386,1.092-3.604l3.899,0.934
			C97.7,73.769,97.287,75.134,96.799,76.454z M30.085,72.865c-0.346-1.365-0.613-2.765-0.796-4.161l3.977-0.519
			c0.161,1.24,0.398,2.483,0.706,3.695L30.085,72.865z M98.77,68.224l-3.982-0.464c0.145-1.237,0.218-2.502,0.218-3.76
			c0-0.288-0.004-0.576-0.011-0.862l4.008-0.104c0.009,0.321,0.013,0.644,0.013,0.966C99.015,65.412,98.932,66.834,98.77,68.224z
			 M28.987,64.484l-0.003-0.478c0-1.256,0.064-2.516,0.192-3.751l3.988,0.413c-0.114,1.099-0.172,2.22-0.172,3.331l0.004,0.433
			L28.987,64.484z M94.676,59.39c-0.18-1.244-0.435-2.484-0.757-3.686l3.873-1.038c0.363,1.353,0.649,2.749,0.853,4.149
			L94.676,59.39z M33.771,56.956l-3.912-0.879c0.31-1.377,0.705-2.748,1.175-4.075l3.779,1.338
			C34.396,54.518,34.046,55.734,33.771,56.956z M92.73,52.136c-0.463-1.157-1.003-2.302-1.604-3.402l3.52-1.922
			c0.677,1.24,1.284,2.529,1.806,3.834L92.73,52.136z M36.277,49.873l-3.593-1.777c0.624-1.263,1.331-2.501,2.102-3.682l3.357,2.191
			C37.46,47.653,36.832,48.753,36.277,49.873z M89.132,45.548c-0.723-1.015-1.518-2-2.36-2.927l2.966-2.697
			c0.951,1.044,1.846,2.153,2.66,3.298L89.132,45.548z M40.385,43.585l-3.073-2.575c0.904-1.08,1.885-2.116,2.912-3.081l2.744,2.924
			C42.057,41.707,41.188,42.627,40.385,43.585z M84.078,39.995c-0.943-0.815-1.946-1.583-2.983-2.28l2.238-3.327
			c1.171,0.788,2.305,1.654,3.37,2.577L84.078,39.995z M45.857,38.449l-2.373-3.232c1.139-0.836,2.338-1.609,3.564-2.298
			l1.965,3.494C47.928,37.023,46.866,37.709,45.857,38.449z M77.859,35.812c-1.118-0.568-2.278-1.07-3.447-1.494l1.364-3.77
			c1.324,0.479,2.635,1.047,3.897,1.688L77.859,35.812z M52.39,34.779l-1.522-3.709c1.308-0.537,2.66-0.997,4.02-1.368l1.055,3.869
			C54.74,33.897,53.545,34.305,52.39,34.779z M70.811,33.26c-1.213-0.276-2.459-0.48-3.702-0.606l0.402-3.989
			c1.407,0.143,2.816,0.373,4.191,0.686L70.811,33.26z M59.614,32.809l-0.569-3.969c1.394-0.2,2.815-0.316,4.228-0.345l0.081,4.009
			C62.105,32.529,60.847,32.632,59.614,32.809z"/>
	</g>
	<g>
		<g>
			<g>
				<polygon fill="#282D33" points="72.84,13.912 64.758,5.712 56.675,13.912 53.819,11.098 64.758,0 75.696,11.098 				"/>
			</g>
			<g>
				<rect x="62.754" y="4.768" fill="#282D33" width="4.01" height="16.333"/>
			</g>
		</g>
		<g>
			<g>
				<polygon fill="#282D33" points="23.942,33.87 19.933,33.869 19.938,18.216 35.389,18.211 35.39,22.221 23.945,22.225 				"/>
			</g>
			<g>
				
					<rect x="20.858" y="25.34" transform="matrix(0.7019 0.7123 -0.7123 0.7019 28.1121 -12.4781)" fill="#282D33" width="16.211" height="4.01"/>
			</g>
		</g>
		<g>
			<g>
				<polygon fill="#282D33" points="11.843,74.291 0.95,63.23 11.843,52.167 14.7,54.98 6.577,63.23 14.699,71.478 				"/>
			</g>
			<g>
				<rect x="5.646" y="61.224" fill="#282D33" width="16.091" height="4.009"/>
			</g>
		</g>
		<g>
			<g>
				<polygon fill="#282D33" points="34.315,108.701 18.861,108.693 18.859,93.041 22.868,93.041 22.87,104.686 34.317,104.691 				
					"/>
			</g>
			<g>
				
					<rect x="25.883" y="91.457" transform="matrix(0.7127 0.7015 -0.7015 0.7127 77.8545 9.0432)" fill="#282D33" width="4.009" height="16.213"/>
			</g>
		</g>
		<g>
			<g>
				<polygon fill="#282D33" points="92.607,109.792 92.605,105.782 104.048,105.776 104.055,94.129 108.064,94.131 108.056,109.784 
									"/>
			</g>
			<g>
				
					<rect x="90.928" y="98.651" transform="matrix(0.702 0.7121 -0.7121 0.702 101.1909 -40.5338)" fill="#282D33" width="16.211" height="4.009"/>
			</g>
		</g>
		<g>
			<g>
				<polygon fill="#282D33" points="116.155,75.832 113.299,73.019 121.422,64.771 113.299,56.523 116.155,53.71 127.05,64.771 				
					"/>
			</g>
			<g>
				<rect x="106.261" y="62.768" fill="#282D33" width="16.089" height="4.01"/>
			</g>
		</g>
		<g>
			<g>
				<polygon fill="#282D33" points="63.238,128 52.3,116.903 55.155,114.088 63.238,122.289 71.324,114.088 74.179,116.903 				"/>
			</g>
			<g>
				<rect x="61.231" y="106.9" fill="#282D33" width="4.01" height="16.333"/>
			</g>
		</g>
		<g>
			<g>
				<polygon fill="#282D33" points="105.128,34.962 105.123,23.314 93.679,23.309 93.681,19.3 109.131,19.307 109.138,34.96 				"/>
			</g>
			<g>
				
					<rect x="98.103" y="20.331" transform="matrix(0.7124 0.7017 -0.7017 0.7124 48.7409 -62.0716)" fill="#282D33" width="4.009" height="16.21"/>
			</g>
		</g>
	</g>
	<g>
		<g>
			<path fill="#282D33" d="M63.996,89.457c-13.845,0-25.108-11.42-25.108-25.457c0-14.036,11.264-25.456,25.108-25.456
				c13.844,0,25.108,11.42,25.108,25.456C89.104,78.037,77.84,89.457,63.996,89.457z M63.996,42.554
				c-11.634,0-21.1,9.621-21.1,21.446c0,11.826,9.466,21.447,21.1,21.447S85.095,75.826,85.095,64
				C85.095,52.175,75.63,42.554,63.996,42.554z"/>
		</g>
		<g>
			<path fill="#282D33" d="M63.998,71.496c-5.582,0-10.122-4.595-10.122-10.241c0-5.648,4.54-10.242,10.122-10.242
				c5.58,0,10.121,4.594,10.121,10.242C74.119,66.901,69.578,71.496,63.998,71.496z M63.998,55.022c-3.37,0-6.113,2.795-6.113,6.232
				c0,3.437,2.743,6.231,6.113,6.231s6.112-2.795,6.112-6.231C70.11,57.817,67.368,55.022,63.998,55.022z"/>
		</g>
		<g>
			<path fill="#282D33" d="M80.208,80.626h-4.009v-0.671c0-3.438-2.742-6.233-6.112-6.233H57.912c-3.37,0-6.112,2.796-6.112,6.233
				v0.671h-4.009v-0.671c0-5.648,4.54-10.243,10.121-10.243h12.175c5.58,0,10.121,4.595,10.121,10.243V80.626z"/>
		</g>
	</g>
</g>
</svg>
