<svg xmlns="http://www.w3.org/2000/svg" viewBox="0 0 32 32"><title>64-Security</title><g id="_64-Security" data-name="64-Security"><path d="M16,0A16,16,0,1,0,32,16,16,16,0,0,0,16,0Zm0,30A14,14,0,1,1,30,16,14,14,0,0,1,16,30Z"/><path d="M21,10H20V8a1.89,1.89,0,0,0-1.86-2H13.86A1.9,1.9,0,0,0,12,8v2H11a3,3,0,0,0-3,3v8a3,3,0,0,0,3,3H21a3,3,0,0,0,3-3V13A3,3,0,0,0,21,10ZM14,8h4v2H14Zm8,13a1,1,0,0,1-1,1H11a1,1,0,0,1-1-1V13a1,1,0,0,1,1-1H21a1,1,0,0,1,1,1Z"/><path d="M16,14a2,2,0,0,0-1,3.72V20a2,2,0,0,0,2-2v-.28A2,2,0,0,0,16,14Z"/></g></svg>